<?xml version="1.0" encoding="UTF-8"?>
<!DOCTYPE svg PUBLIC "-//W3C//DTD SVG 1.1//EN" "http://www.w3.org/Graphics/SVG/1.1/DTD/svg11.dtd">
<!-- Creator: CorelDRAW 2019 (64-Bit) -->
<svg xmlns="http://www.w3.org/2000/svg" xml:space="preserve" width="6561px" height="2160px" version="1.1" style="shape-rendering:geometricPrecision; text-rendering:geometricPrecision; image-rendering:optimizeQuality; fill-rule:evenodd; clip-rule:evenodd"
viewBox="0 0 6561 2160.08"
 xmlns:xlink="http://www.w3.org/1999/xlink"
 xmlns:xodm="http://www.corel.com/coreldraw/odm/2003">
 <defs>
  <style type="text/css">
   <![CDATA[
    .fil0 {fill:#EE4E2C;fill-rule:nonzero}
   ]]>
  </style>
 </defs>
 <g id="Layer_x0020_1">
  <metadata id="CorelCorpID_0Corel-Layer"/>
  <g id="_1702398714224">
   <path class="fil0" d="M1756.51 578.2l-438.82 0c-49.3,-439.64 -260.29,-585.91 -428.55,-577.89 -189.21,9.45 -380.47,210.77 -388.07,577.89l-439.44 0c-34.1,0 -61.63,27.53 -61.63,61.64l81.56 1238.39c0,34.1 91.42,190.43 235.23,189.41l1191.55 0c208.73,-32.46 235.02,-207.29 235.02,-241.39l74.79 -1186.41c0,-34.11 -27.54,-61.64 -61.64,-61.64zm-862.23 -475.38l0 0c122.24,-5.75 276.93,115.46 319.87,475.38l-610.36 0c6.98,-299.73 153.05,-468.4 290.49,-475.38zm124.09 1702.68l0 0c-142.37,27.32 -325.42,-20.13 -425.05,-127.17 -45,-48.27 27.52,-121.21 72.72,-72.52 66.97,72.11 186.33,105.8 283.71,103.54 124.09,-2.66 234.62,-115.66 164.15,-241.79 -97.59,-174.63 -338.16,-125.74 -461.84,-262.97 -100.04,-110.73 -52.58,-284.94 64.92,-362.19 122.45,-80.53 333.85,-77.45 434.51,38.01 43.35,49.51 -29.17,122.44 -72.73,72.51 -81.35,-93.26 -273.44,-80.53 -346.77,15.41 -104.36,137.03 51.76,210.78 160.85,243.87 149.97,45.39 316.38,128.39 343.7,300.34 21.78,138.47 -85.46,267.28 -218.17,292.96z"/>
   <path class="fil0" d="M4760.1 1187.11c-96.24,0 -182.86,40.95 -242.22,105.86l0 -75.32c0,-68.1 -109.1,-68.31 -109.1,0l0 891.11c0,68.32 109.1,68.53 109.1,0l0 -396.75c59.57,64.92 145.98,105.66 242.22,105.66 178.71,0 324.04,-141.31 324.04,-315.28 0,-173.77 -145.33,-315.28 -324.04,-315.28zm0 516.62l0 0c-114.34,0 -207.08,-90.39 -207.08,-201.34 0,-99.94 75.28,-183.32 173.91,-198.81 0.43,0 1.09,-0.2 1.74,-0.2 10.26,-1.49 20.74,-2.34 31.43,-2.34 84.45,0 157.33,49.43 189.41,120.29 0,0.22 0.22,0.64 0.22,0.85 11.13,24.62 17.24,51.78 17.24,80.21 0,110.95 -92.74,201.34 -206.87,201.34zm-804.76 113.98c-178.8,0 -324.27,-141.43 -324.27,-315.28 0,-173.86 145.47,-315.29 324.27,-315.29 178.81,0 324.26,141.43 324.26,315.29 0,173.85 -145.45,315.28 -324.26,315.28zm0 -516.61l0 0c-114.18,0 -207.07,90.32 -207.07,201.33 0,111 92.89,201.32 207.07,201.32 114.16,0 207.05,-90.32 207.05,-201.32 0,-111.01 -92.89,-201.33 -207.05,-201.33zm2605.66 195.08c-2.62,-144.91 -78.99,-275.81 -236.99,-304.87 -136.16,-25.04 -295.23,44.76 -353.28,168.66 -60.22,128.79 -34.92,305.52 83.79,395.27 128.53,96.96 329.07,67.05 460.87,-4.67 61.31,-33.3 6.32,-124.96 -55.21,-91.65 -83.58,45.62 -192.68,67.89 -286.29,37.55 -70.05,-22.7 -109.33,-81.47 -121.12,-147.24l453.67 0c29.02,0 54.99,-24.4 54.56,-53.05zm-504.3 -53.03l0 0c0.88,-4.04 1.97,-7.85 3.06,-11.67 26.19,-86.36 115.44,-136.42 205.77,-138.76 103.87,-2.76 162.14,66.83 180.25,150.43l-389.08 0zm-221.91 53.93c-2.61,-144.91 -78.99,-275.82 -236.97,-304.88 -136.17,-25.04 -295.25,44.76 -353.29,168.67 -60.23,128.79 -34.92,305.52 83.79,395.27 128.53,96.96 329.07,67.04 460.87,-4.67 61.31,-33.31 6.33,-124.96 -55.21,-91.65 -83.58,45.61 -192.68,67.88 -286.29,37.55 -70.05,-22.7 -109.33,-81.47 -121.11,-147.25l453.67 0c29.02,0 54.98,-24.4 54.54,-53.04zm-504.28 -53.04l0 0c0.87,-4.03 1.96,-7.85 3.05,-11.67 26.19,-86.35 115.44,-136.43 205.77,-138.76 103.87,-2.75 162.14,66.84 180.24,150.43l-389.06 0zm-1827.32 -49.14l0 368.35c0,69.44 -109.1,69.44 -109.1,0l0 -361.16c-3.71,-71.43 -64.55,-104.2 -66.53,-105.06 -77.65,-33.75 -218.67,-18.28 -302.69,88.46l0 377.76c0,69.44 -109.1,69.44 -109.1,0l0 -946.15c0,-69.43 109.1,-69.21 109.1,0l0 424.99c133.77,-89.48 303.91,-79.5 383.85,-24.67 0,0 96.12,52.6 94.47,177.48zm-766.35 -534.3c-106.99,-118.18 -331.37,-121.33 -461.59,-38.82 -124.67,78.98 -175.1,257.43 -68.97,370.79 131.48,140.46 386.92,90.38 490.59,269.07 74.94,129.16 -42.46,244.79 -174.28,247.61 -103.37,2.2 -230.21,-32.32 -301.4,-106.15 -47.91,-49.68 -124.93,24.8 -77.16,74.34 105.67,109.58 300.28,158.16 451.32,130.08 141.06,-26.22 254.93,-158.18 231.72,-299.88 -28.81,-175.94 -205.59,-260.93 -364.94,-307.34 -115.99,-33.78 -281.78,-109.39 -170.8,-249.52 77.89,-98.37 281.86,-111.38 368.37,-15.84 46.25,51.08 123.15,-23.54 77.14,-74.34z"/>
  </g>
 </g>
</svg>
