<?xml version="1.0" encoding="UTF-8"?>
<!DOCTYPE svg PUBLIC "-//W3C//DTD SVG 1.1//EN" "http://www.w3.org/Graphics/SVG/1.1/DTD/svg11.dtd">
<!-- Creator: CorelDRAW 2019 (64-Bit) -->
<svg xmlns="http://www.w3.org/2000/svg" xml:space="preserve" width="3042px" height="2160px" version="1.1" style="shape-rendering:geometricPrecision; text-rendering:geometricPrecision; image-rendering:optimizeQuality; fill-rule:evenodd; clip-rule:evenodd"
viewBox="0 0 3042 2160.18"
 xmlns:xlink="http://www.w3.org/1999/xlink"
 xmlns:xodm="http://www.corel.com/coreldraw/odm/2003">
 <defs>
  <style type="text/css">
   <![CDATA[
    .fil7 {fill:#FEFEFE}
    .fil5 {fill:#FCD066}
    .fil4 {fill:#FDF8B4}
    .fil6 {fill:#EEEFEE}
    .fil2 {fill:#89C45F}
    .fil1 {fill:#5FB74E}
    .fil0 {fill:#4D4C4B}
    .fil8 {fill:#3CAF41}
    .fil3 {fill:#4A9E4B}
   ]]>
  </style>
 </defs>
 <g id="Layer_x0020_1">
  <metadata id="CorelCorpID_0Corel-Layer"/>
  <g id="_2140071741520">
   <path class="fil0" d="M1521.26 307.99c62.65,-31.32 138.66,-48.4 208.2,-54.42l78.17 -6.8c85.6,-7.37 171.28,-2.85 256.98,-2.85l47.01 0 0 46.99c0,208.69 0,417.43 0,626.16l0 23.98c0,215.46 -176.18,391.64 -391.71,391.64l-789.53 0 0 -1088.77 46.97 0c85.81,0 171.16,-5.63 256.95,1.02l78.15 5.91c74.23,5.58 142.19,23.58 208.81,57.14z"/>
   <path class="fil1" d="M977.35 290.91l0 536.39 0 89.77 0 23.98 0 344.68 344.62 0 54.16 0 343.78 0c189.61,0 344.7,-155.14 344.7,-344.68l0 -23.98c0,-207.52 0,-409.93 0,-626.16 -82.37,0 -169.37,-2.01 -252.91,2.71l-78.18 6.74c-76.51,9.3 -153.9,27.15 -212.54,60.99 -63.3,-36.57 -132.34,-54.76 -212.08,-63.69l-78.16 -5.93c-85.23,-3.98 -172.62,-0.82 -253.39,-0.82z"/>
   <path class="fil2" d="M1074.83 1285.73l247.14 0 54.16 0 343.78 0c84,0 161.18,-30.47 221.1,-80.81 -70,-162.67 -231.74,-276.53 -420.05,-276.53 -218.19,0 -400.62,152.84 -446.13,357.34z"/>
   <path class="fil3" d="M1520.99 1285.73l202.94 -3c82.88,0 158.33,-29.23 217.09,-77.78 75.67,-62.53 123.59,-157.21 123.59,-263.9l0 -23.98c0,-207.52 0,-409.93 0,-626.16 -82.37,0 -169.37,-2.01 -252.91,2.71l-78.18 6.74c-76.51,9.3 -153.9,27.15 -212.54,60.99l0.01 924.38z"/>
   <path class="fil1" d="M1520.99 1285.73l200.19 0c84,0 159.92,-30.44 219.84,-80.78 -69.22,-160.85 -234.42,-273.98 -420.04,-276.47l0.01 357.25z"/>
   <path class="fil0" d="M1811.7 261.06c-14.94,-146.74 -138.94,-261.06 -289.48,-261.06 -150.48,0 -274.42,113.34 -291.48,259.23l78.16 5.96c13.81,-105.36 103.62,-186.83 213.02,-186.83 109.35,0 199.93,82.85 211.59,189.43l78.19 -6.73z"/>
   <path class="fil0" d="M1648.12 974.27c-34.06,36.01 -68.07,72.04 -102.12,108.11l-25.03 26.54 -25.01 -26.54c-34.05,-36 -68.07,-72.1 -102.11,-108.11l-17.63 -18.72 12.87 -22.22c27.32,-47.09 78.39,-72.42 131.87,-72.42 53.54,0 104.57,25.33 131.9,72.42l12.9 22.22 -17.64 18.72z"/>
   <path class="fil4" d="M1623.05 950.64c-33.98,36.05 -68.07,72.05 -102.09,108.11 -34.01,-36.06 -68.06,-72.06 -102.1,-108.11 21.5,-37.06 61.86,-55.37 102.1,-55.31 40.26,-0.06 80.61,18.25 102.09,55.31z"/>
   <path class="fil5" d="M1623.05 950.64c-33.98,36.05 -68.07,72.05 -102.09,108.11l0.01 -163.42c40.25,-0.06 80.6,18.25 102.08,55.31z"/>
   <path class="fil0" d="M1265.85 426.5c152.51,0 276.19,123.76 276.19,276.19 0,152.5 -123.68,276.2 -276.19,276.2 -152.52,0 -276.15,-123.7 -276.15,-276.2 0,-152.43 123.63,-276.19 276.15,-276.19z"/>
   <path class="fil6" d="M1265.85 473.49c126.58,0 229.22,102.66 229.22,229.2 0,126.56 -102.64,229.21 -229.22,229.21 -126.61,0 -229.2,-102.65 -229.2,-229.21 0,-126.54 102.59,-229.2 229.2,-229.2z"/>
   <path class="fil7" d="M1265.85 473.49c104.46,0 192.62,69.94 220.24,165.51 -27.62,95.54 -115.78,165.48 -220.24,165.48 -104.5,0 -192.57,-69.94 -220.18,-165.48 27.61,-95.57 115.68,-165.51 220.18,-165.51z"/>
   <path class="fil0" d="M1776.09 426.5c152.54,0 276.17,123.76 276.17,276.19 0,152.5 -123.63,276.2 -276.17,276.2 -152.51,0 -276.2,-123.64 -276.2,-276.2 0,-152.43 123.69,-276.19 276.2,-276.19z"/>
   <path class="fil6" d="M1776.09 473.49c126.58,0 229.22,102.66 229.22,229.2 0.01,126.56 -102.64,229.21 -229.22,229.21 -126.57,0 -229.18,-102.65 -229.18,-229.21 0,-126.54 102.61,-229.2 229.18,-229.2z"/>
   <path class="fil7" d="M1776.09 473.49c104.44,0 192.62,69.94 220.19,165.51 -27.57,95.54 -115.75,165.48 -220.19,165.48 -104.49,0 -192.62,-69.94 -220.24,-165.48 27.62,-95.57 115.75,-165.51 220.24,-165.51z"/>
   <path class="fil0" d="M1294.66 560.16c81.74,0 148.06,66.27 148.06,147.94 0,81.79 -66.32,148.06 -148.06,148.06 -81.8,0 -148.05,-66.27 -148.05,-148.06 0,-27.25 7.41,-52.77 20.28,-74.72 10.57,26.14 36.14,44.48 66.11,44.48 39.36,0 71.32,-31.84 71.32,-71.23 0,-17.72 -6.47,-33.9 -17.12,-46.31 2.46,-0.16 4.99,-0.16 7.46,-0.16z"/>
   <path class="fil0" d="M1747.24 560.16c81.82,0 148.09,66.27 148.09,147.94 0,81.79 -66.27,148.06 -148.09,148.06 -81.72,0 -147.99,-66.27 -147.99,-148.06 0,-27.25 7.37,-52.77 20.21,-74.72 10.62,26.14 36.23,44.48 66.17,44.48 39.37,0 71.28,-31.84 71.28,-71.23 0,-17.72 -6.4,-33.9 -17.08,-46.31 2.49,-0.16 4.93,-0.16 7.41,-0.16z"/>
   <path class="fil8" d="M1626.31 1965.86c-33.05,33.53 -72.6,50.43 -118.43,50.43 -37.05,-0.01 -68.56,-7.58 -100.72,-26.26l0.01 -76.9c25.87,17.53 58.33,34.24 90.4,34.24 66.84,0 106.66,-46.01 106.66,-111.21 0,-65.27 -41.19,-112.65 -108.04,-112.65 -29.9,0 -54.09,10.73 -73.02,32.25 -20.28,23.33 -30.75,56.66 -30.75,100.72l0 303.7 -5.04 0c-36.83,0 -66.71,-29.87 -66.71,-66.71l0 -248.37c0,-105.39 64.44,-190.49 175.2,-190.49 54.65,0 99.07,18.69 132.74,56.25 31.66,35.08 47.36,79.58 47.36,133.08 0,47.63 -16.54,88.35 -49.66,121.92zm-1521.33 43.33c-70.15,0 -104.98,-47.74 -104.98,-114.38l0 -252.89c0,-36.84 29.86,-66.7 66.72,-66.7l5.02 0 0 86.47 121.22 0 0 68.92 -121.22 0 0 172.17c0,29.28 13.08,37.52 41.04,37.52l80.18 -0.01 0 68.9 -87.98 0zm416.68 -43.94c-35.47,34 -78.06,51.04 -127.55,51.04 -49.02,-0.01 -91.4,-17.05 -126.82,-51.03 -35.57,-34.11 -53.31,-77.51 -53.31,-129.82 0,-102.05 77.95,-180.83 180.13,-180.83 49.05,0 91.51,17.18 127.18,51.38 35.8,34.32 53.66,77.59 53.66,129.45 0,52.31 -17.75,95.71 -53.29,129.81zm335.4 -219.95c-10.52,17.65 -18.67,30.32 -24.42,37.96 -6.33,8.31 -12.57,14.96 -18.76,19.54 49.86,16.12 68.43,50.67 68.43,102.12l0 104.27 -5.05 0c-36.84,0 -66.71,-29.87 -66.71,-66.71l0 -30.49c0,-33.3 -14.92,-55.93 -50.24,-55.93l-65.16 0 0 153.13 -5.03 0c-36.84,0 -66.72,-29.87 -66.72,-66.71l0 -370.02c0,-36.84 29.88,-66.71 66.72,-66.71l5.03 -0.01 0 280.7 21.2 0c23.3,0 38.63,-7.95 47.4,-23.03l60.28 -101.7 81.76 -0.08 -48.73 83.67zm370.36 219.95c-35.45,34 -78.05,51.04 -127.55,51.04 -49.01,-0.01 -91.37,-17.05 -126.83,-51.03 -35.55,-34.11 -53.27,-77.51 -53.27,-129.82 0,-102.05 77.91,-180.83 180.1,-180.83 49.07,0 91.54,17.18 127.2,51.38 35.78,34.32 53.66,77.59 53.66,129.45 0,52.31 -17.75,95.71 -53.31,129.81zm-51.78 -210.66c-19.77,-20.71 -44.92,-31.08 -75.77,-31.08 -66.02,0 -105.54,48.14 -105.54,111.93 0,62.92 40.47,111.93 105.54,111.93 65.13,0 105.53,-49.01 105.53,-111.93 0,-33.4 -10.01,-60.2 -29.76,-80.85zm-705.79 0c-19.77,-20.71 -44.88,-31.08 -75.74,-31.08 -66.03,0 -105.54,48.14 -105.54,111.93 0,62.92 40.46,111.93 105.54,111.93 65.09,0 105.56,-49.01 105.56,-111.93 0,-33.4 -10.03,-60.2 -29.82,-80.85zm1933.27 208.72c-32.93,35.34 -75.31,52.98 -126.71,52.98 -54.21,-0.01 -98.42,-18.72 -132.05,-56.28 -31.63,-35.51 -47.36,-80.03 -47.36,-133.08 0,-93.88 72.49,-172.32 167.81,-172.32 36.8,0 68.73,7.74 101.01,25.45l0 77.68c-25.89,-17.53 -58.37,-34.23 -90.41,-34.23 -66.83,0 -106.65,46 -106.65,111.21 0,64.39 42.11,112.65 108.02,112.65 29.83,0 54.43,-11.21 74.09,-33.72 19.52,-22.4 29.68,-55.28 29.68,-99.47l0 -241.72c0,-36.84 29.86,-66.71 66.73,-66.71l5.02 -0.01 0 319.77c0,56.33 -16.29,102.41 -49.18,137.8zm202.59 -342.84c-7.54,8.43 -18.33,12.32 -31.52,12.32 -24.6,0 -42.22,-18.19 -42.22,-42.6 0,-25.02 17.3,-41.9 42.22,-41.9 24.03,0 42.27,17.79 42.27,41.9 0,11.91 -3.48,22.13 -10.75,30.28zm364.53 193.7c0,-28.27 -10.69,-50.65 -32.22,-67.64 -19.36,-15.25 -43.58,-23.02 -72.97,-23.02 -64.93,0 -106.6,50.75 -106.6,113.33 0,60.27 44.15,110.53 105.94,110.53 42.93,0 65.92,-25.11 90.42,-56.35l0 90.13c-12.5,9.34 -26.86,19.53 -41.52,25.52 -15.46,6.46 -33.9,9.62 -55.23,9.62 -103.26,-0.01 -171.37,-85.55 -171.37,-184.39 0,-50.76 15.76,-92.71 47.5,-125.43 33.69,-34.66 77.84,-51.86 131.92,-51.86 102.54,0 175.89,58.86 175.89,165.23l0 189.35 -5.05 0c-36.84,0 -66.71,-29.87 -66.71,-66.71l0 -128.31zm-982.11 -20.3c-9.09,-28.05 -20.44,-41.84 -46.61,-56.43 -62.15,-34.76 -123.33,-5.19 -151.81,56.15l198.42 0.28zm-54.74 221.35c-45.84,9.72 -90.81,2.23 -134.67,-22.27 -42.78,-23.92 -71.47,-59.47 -85.82,-106.42 -29.03,-94.98 30.47,-200.82 126.13,-226.47 47.42,-12.7 92.92,-6.94 136.12,17.22 71.77,40.1 97.92,102.15 93.36,182.11l-289.05 -0.6c4.24,32.61 24.47,58.14 52.87,74 28.81,16.11 55.31,19.95 79.9,12.32 27.27,-8.57 49.4,-30.83 67.41,-51.56l58.93 42.92c-24.05,42.99 -56.77,68.44 -105.18,78.75zm604.95 -353.53l71.73 0 0 347.5 -5.02 0c-36.82,0 -66.71,-29.87 -66.71,-66.71l0 -280.79z"/>
  </g>
 </g>
</svg>
